<mxfile host="Electron" modified="2024-05-19T11:30:22.787Z" agent="Mozilla/5.0 (Windows NT 10.0; Win64; x64) AppleWebKit/537.36 (KHTML, like Gecko) draw.io/24.4.0 Chrome/120.0.6099.109 Electron/28.1.0 Safari/537.36" etag="AkHkFkUuXx3vsLuHwnOL" version="24.4.0" type="device">
  <diagram name="Page-1" id="xfIYZY3eefDTXILNI-Lq">
    <mxGraphModel dx="1434" dy="844" grid="1" gridSize="10" guides="1" tooltips="1" connect="1" arrows="1" fold="1" page="1" pageScale="1" pageWidth="827" pageHeight="1169" math="0" shadow="0">
      <root>
        <mxCell id="0" />
        <mxCell id="1" parent="0" />
        <mxCell id="XvacxVE_5PmG03Pm2XYH-1" value="" style="rounded=0;whiteSpace=wrap;html=1;" parent="1" vertex="1">
          <mxGeometry x="270" y="170" width="340" height="450" as="geometry" />
        </mxCell>
        <mxCell id="XvacxVE_5PmG03Pm2XYH-2" value="" style="rounded=1;whiteSpace=wrap;html=1;" parent="1" vertex="1">
          <mxGeometry x="305" y="195" width="260" height="400" as="geometry" />
        </mxCell>
        <mxCell id="XvacxVE_5PmG03Pm2XYH-3" value="" style="rounded=1;whiteSpace=wrap;html=1;" parent="1" vertex="1">
          <mxGeometry x="325" y="210" width="220" height="320" as="geometry" />
        </mxCell>
        <mxCell id="XvacxVE_5PmG03Pm2XYH-4" value="Чатбот за обслужване на клиенти" style="rounded=0;whiteSpace=wrap;html=1;" parent="1" vertex="1">
          <mxGeometry x="355" y="230" width="160" height="40" as="geometry" />
        </mxCell>
        <mxCell id="XvacxVE_5PmG03Pm2XYH-7" value="" style="ellipse;whiteSpace=wrap;html=1;aspect=fixed;" parent="1" vertex="1">
          <mxGeometry x="415" y="540" width="40" height="40" as="geometry" />
        </mxCell>
        <mxCell id="_J2usdLFa17UOiEigYt--1" value="Здравейте как мога да Ви помогна?" style="rounded=1;whiteSpace=wrap;html=1;" vertex="1" parent="1">
          <mxGeometry x="336" y="300" width="155" height="30" as="geometry" />
        </mxCell>
        <mxCell id="_J2usdLFa17UOiEigYt--2" value="Защо не виждам поръчката си с номер 123456 на основният екран на приложението?" style="rounded=1;whiteSpace=wrap;html=1;" vertex="1" parent="1">
          <mxGeometry x="380" y="340" width="155" height="60" as="geometry" />
        </mxCell>
        <mxCell id="_J2usdLFa17UOiEigYt--3" value="" style="html=1;verticalLabelPosition=bottom;labelBackgroundColor=#ffffff;verticalAlign=top;shadow=0;dashed=0;strokeWidth=2;shape=mxgraph.ios7.misc.loading_circle;" vertex="1" parent="1">
          <mxGeometry x="336" y="400" width="30" height="30" as="geometry" />
        </mxCell>
        <mxCell id="_J2usdLFa17UOiEigYt--4" value="Част от данните не бяха синхронизирани, поради слаба интернет връзка. Моля, опитайте отново." style="rounded=1;whiteSpace=wrap;html=1;" vertex="1" parent="1">
          <mxGeometry x="336" y="440" width="154" height="60" as="geometry" />
        </mxCell>
        <mxCell id="_J2usdLFa17UOiEigYt--5" value="Анализиране на данни" style="text;html=1;align=center;verticalAlign=middle;whiteSpace=wrap;rounded=0;" vertex="1" parent="1">
          <mxGeometry x="362.5" y="400" width="145" height="30" as="geometry" />
        </mxCell>
      </root>
    </mxGraphModel>
  </diagram>
</mxfile>
